<svg xmlns="http://www.w3.org/2000/svg" viewBox="0 0 460.000000 460.000000">
  <style>
    path { fill: #222; }
    @media (prefers-color-scheme: dark) {
      path { fill: #ffffff; }
    }
  </style>
  <g transform="translate(0.000000,460.000000) scale(0.100000,-0.100000)" fill="#000000" stroke="none">
    <path d="M3042 4105 c-30 -62 -27 -71 4 -12 14 27 24 51 22 53 -3 2 -14 -17 -26 -41z"/>
    <path d="M1481 4079 c-47 -14 -34 -20 18 -8 28 6 55 6 79 -1 51 -14 64 -11 22 5 -41 16 -73 17 -119 4z"/>
    <path d="M1384 4018 l-29 -33 33 29 c30 28 37 36 29 36 -2 0 -16 -15 -33 -32z"/>
    <path d="M1650 4045 c0 -2 10 -10 23 -16 20 -11 21 -11 8 4 -13 16 -31 23 -31 12z"/>
    <path d="M1715 4038 c5 -7 14 -20 21 -28 7 -9 20 -43 29 -77 12 -48 13 -71 5 -108 -28 -125 -107 -186 -242 -188 l-68 -1 0 -961 c0 -960 0 -962 21 -986 20 -24 22 -24 213 -24 l193 0 -12 -35 c-18 -52 -53 -136 -86 -208 -16 -35 -29 -66 -29 -69 0 -3 -11 -31 -25 -62 -13 -31 -54 -128 -90 -216 -37 -88 -77 -184 -91 -213 -13 -29 -24 -56 -24 -61 0 -4 -14 -36 -30 -70 -17 -35 -29 -68 -28 -73 3 -8 72 135 134 277 7 17 47 107 89 200 42 94 95 212 118 264 23 52 56 124 74 160 l32 66 0 -237 c1 -231 2 -238 23 -258 20 -19 34 -20 225 -20 112 0 203 2 203 4 0 2 -9 26 -21 53 -62 144 -78 423 -39 685 24 165 42 227 76 259 24 23 34 24 197 31 193 7 240 15 346 54 139 52 260 130 330 213 132 160 171 367 112 608 -47 199 -204 351 -434 423 -51 16 -109 32 -129 35 -42 7 -42 5 6 108 73 155 195 431 192 434 -2 2 -35 -63 -75 -143 l-72 -147 -32 39 c-106 131 -216 199 -403 250 -96 27 -110 28 -408 32 -255 3 -307 1 -301 -10z m650 -486 c100 -46 144 -114 145 -220 0 -104 -38 -159 -145 -209 -58 -26 -66 -27 -267 -31 l-208 -4 0 230 c0 127 3 238 6 247 6 15 28 16 213 13 189 -3 210 -5 256 -26z m472 -567 c101 -45 142 -122 130 -246 -6 -70 -36 -116 -104 -159 -60 -38 -139 -50 -336 -50 l-167 0 0 29 c0 35 17 75 131 317 16 34 29 64 29 67 0 3 10 22 22 43 l21 36 106 -4 c89 -4 116 -9 168 -33z m-557 -384 c0 -11 -13 -49 -30 -84 -16 -36 -30 -68 -30 -71 0 -3 -13 -34 -28 -68 -16 -35 -46 -105 -67 -156 l-39 -93 -96 3 -95 3 -3 220 c-1 121 0 230 3 243 5 22 7 22 195 22 181 0 190 -1 190 -19z"/>
    <path d="M1721 3965 c30 -60 23 -150 -17 -207 -73 -106 -232 -116 -320 -21 l-26 28 21 -32 c50 -75 188 -98 272 -44 103 65 137 211 69 293 -19 22 -19 21 1 -17z"/>
    <path d="M1327 3901 c-6 -29 8 -120 17 -110 2 2 1 36 -3 74 -6 61 -7 66 -14 36z"/>
    <path d="M1436 579 c-16 -33 -26 -62 -24 -65 3 -2 17 23 32 57 35 80 28 87 -8 8z"/>
    <path d="M1386 465 c-9 -26 -7 -32 5 -12 6 10 9 21 6 23 -2 3 -7 -2 -11 -11z"/>
    <path d="M1365 419 c-4 -6 -5 -12 -2 -15 2 -3 7 2 10 11 7 17 1 20 -8 4z"/>
  </g>
</svg>
