<?xml version="1.0" standalone="no"?>
<!DOCTYPE svg PUBLIC "-//W3C//DTD SVG 20010904//EN"
 "http://www.w3.org/TR/2001/REC-SVG-20010904/DTD/svg10.dtd">
<svg version="1.0" xmlns="http://www.w3.org/2000/svg"
 width="460.000000pt" height="460.000000pt" viewBox="0 0 460.000000 460.000000"
 preserveAspectRatio="xMidYMid meet">
<metadata>
Created by potrace 1.14, written by Peter Selinger 2001-2017
</metadata>
<g transform="translate(0.000000,460.000000) scale(0.100000,-0.100000)"
fill="#000000" stroke="none">
<path d="M3236 4515 c-9 -26 -7 -32 5 -12 6 10 9 21 6 23 -2 3 -7 -2 -11 -11z"/>
<path d="M3205 4450 c-9 -16 -13 -30 -11 -30 3 0 12 14 21 30 9 17 13 30 11
30 -3 0 -12 -13 -21 -30z"/>
<path d="M3168 4368 c-12 -24 -36 -72 -53 -108 -137 -280 -165 -339 -165 -344
0 -4 -11 -24 -25 -45 -13 -22 -27 -51 -31 -65 -3 -14 -12 -30 -20 -37 -8 -6
-12 -15 -9 -19 3 -5 1 -11 -5 -15 -5 -3 -10 -2 -10 4 0 5 -6 16 -12 23 -7 7
-28 30 -46 52 -61 71 -215 170 -282 183 -14 2 -43 10 -65 18 -77 25 -112 28
-430 32 l-320 4 21 -23 c21 -22 44 -61 44 -72 0 -3 -5 -6 -12 -6 -6 0 -9 3 -5
6 5 6 -8 24 -53 73 -53 57 -162 76 -240 42 -64 -29 -116 -101 -127 -177 -9
-65 45 -185 90 -200 9 -3 15 -10 11 -15 -3 -5 -2 -9 3 -8 4 1 10 0 13 -1 10
-4 46 -10 65 -12 11 -1 26 -6 33 -11 7 -6 12 -6 12 0 0 10 6 11 55 14 14 1 25
6 25 12 0 6 3 8 6 4 3 -3 11 -1 18 4 43 36 66 59 59 59 -4 0 1 7 11 15 11 8
17 15 13 15 -4 0 -1 13 7 29 9 16 12 31 9 35 -4 3 -1 6 5 6 15 0 16 -26 2 -35
-6 -4 -8 -10 -5 -15 21 -34 -120 -159 -161 -143 -7 3 -14 1 -14 -4 0 -10 -64
-9 -98 1 -20 7 -22 4 -23 -26 0 -18 0 -452 -1 -964 0 -731 2 -940 12 -970 8
-22 15 -33 17 -26 7 19 21 14 28 -9 7 -19 7 -20 21 -2 7 10 14 14 14 10 0 -4
9 -3 20 3 14 7 20 7 20 0 0 -5 -5 -10 -11 -10 -5 0 -7 -5 -4 -11 5 -6 12 -4
21 8 7 10 14 14 14 9 0 -5 6 -3 14 3 11 10 17 8 25 -6 10 -17 10 -17 11 2 0
17 2 17 10 5 6 -9 13 -11 18 -5 4 6 15 11 25 12 13 1 17 -4 14 -16 -2 -10 1
-18 8 -18 7 0 11 6 8 13 -3 8 2 11 14 10 10 -2 24 2 32 8 12 9 13 8 6 -3 -6
-11 -4 -13 9 -8 10 4 19 1 22 -8 4 -8 11 -15 17 -15 7 0 7 4 -1 12 -16 16 -15
33 1 19 10 -8 17 -7 26 2 18 17 5 -34 -24 -98 -13 -27 -29 -67 -36 -88 -7 -20
-16 -37 -20 -37 -4 0 -6 -6 -6 -12 1 -7 -7 -31 -17 -53 -21 -47 -53 -120 -96
-225 -17 -41 -36 -86 -42 -100 -6 -14 -12 -27 -12 -30 -1 -7 -31 -77 -63 -147
-12 -28 -23 -54 -23 -57 0 -3 -11 -29 -24 -58 -27 -62 -39 -91 -40 -99 -1 -3
-11 -28 -23 -55 -21 -45 -45 -102 -158 -371 -31 -73 -40 -105 -32 -109 7 -4 9
-4 5 0 -8 10 46 139 61 144 5 2 7 10 4 19 -5 12 -3 14 7 8 8 -5 11 -4 6 3 -3
6 10 43 29 84 19 40 33 65 30 55 -3 -11 -1 -15 6 -12 5 4 7 15 4 25 -6 19 13
70 26 70 5 0 6 7 3 15 -4 8 -1 15 5 15 6 0 11 9 11 20 0 11 4 20 8 20 5 0 9 6
9 13 0 21 44 108 52 102 4 -2 7 6 6 18 -2 25 11 60 37 99 10 14 18 33 18 42 0
9 8 16 18 16 13 0 14 2 3 9 -11 7 -10 14 8 39 11 17 21 35 21 42 0 6 8 25 17
43 9 18 16 36 15 40 -1 4 5 10 13 13 8 3 12 10 9 15 -3 5 11 43 30 83 20 41
36 79 36 85 0 6 5 11 11 11 5 0 8 4 4 10 -6 9 13 50 28 61 5 3 9 10 10 15 1 5
5 8 8 7 4 -1 5 6 2 16 -3 11 3 31 12 45 10 14 13 26 9 26 -5 0 0 7 11 16 11 8
19 17 18 19 -8 14 -1 25 10 19 9 -5 9 -4 1 5 -8 9 -6 22 9 51 22 46 31 50 33
16 1 -19 -2 -23 -15 -19 -14 4 -14 3 -1 -6 12 -8 15 -43 16 -201 0 -180 2
-192 21 -212 16 -15 34 -21 67 -21 25 0 46 -4 46 -9 0 -5 6 -6 13 -1 18 11
107 13 107 1 0 -5 6 -6 13 -1 21 13 47 13 47 0 0 -8 4 -7 10 3 8 12 10 12 10
1 0 -11 3 -11 15 -1 15 13 21 2 8 -16 -5 -5 -1 -1 9 8 21 23 32 23 24 1 -6
-17 -5 -17 7 -1 12 15 14 15 25 0 10 -16 11 -15 5 1 -3 10 -2 17 3 16 30 -5
31 4 9 61 -23 59 -36 104 -41 147 -1 12 -6 28 -10 35 -13 20 -15 346 -3 328 9
-12 10 -12 5 3 -3 9 -9 23 -12 31 -3 8 5 25 17 37 15 15 17 20 6 16 -12 -4
-15 0 -14 21 1 15 9 33 17 40 8 8 9 11 2 7 -17 -9 -10 34 9 46 8 5 9 9 3 9
-15 0 -11 49 5 59 11 7 11 9 0 13 -19 6 29 136 59 156 33 22 112 24 137 4 18
-15 18 -15 7 -1 -10 14 -10 18 4 23 21 8 24 8 24 -5 0 -5 -5 -7 -12 -3 -7 4
-8 3 -4 -4 5 -9 13 -9 27 -1 27 14 75 8 71 -9 -1 -8 2 -11 8 -7 6 3 8 11 5 16
-4 5 4 9 17 9 25 0 91 7 123 13 11 3 26 0 33 -6 10 -8 12 -7 10 3 -2 7 3 15
11 18 10 3 11 0 5 -9 -6 -11 -5 -12 7 -2 8 6 19 12 24 13 6 1 12 4 15 7 3 4
-2 3 -10 -2 -10 -5 -12 -5 -5 3 18 19 71 19 59 0 -4 -7 -3 -8 4 -4 6 4 8 14 5
23 -4 11 -3 14 5 9 7 -4 12 -2 12 5 0 8 5 7 17 -2 9 -8 14 -9 10 -3 -4 7 0 17
8 24 8 7 15 9 15 5 0 -5 8 -1 18 7 26 23 46 33 38 20 -5 -8 -2 -10 8 -6 9 3
13 10 10 15 -3 5 1 9 10 9 8 0 16 -6 18 -12 3 -7 7 -2 10 10 4 14 2 20 -4 15
-7 -3 -8 -1 -4 5 9 15 67 43 77 37 4 -3 11 0 15 6 4 8 3 9 -4 5 -16 -10 -15 2
2 19 7 8 16 11 20 8 3 -4 6 -1 6 6 0 7 6 19 13 26 6 8 18 21 25 30 7 8 19 12
25 8 7 -4 6 0 -2 10 -12 15 -11 17 2 17 9 0 14 6 11 13 -2 7 3 21 12 32 8 11
12 14 8 6 -5 -10 -3 -12 5 -7 7 5 10 11 7 14 -3 3 0 12 7 20 9 12 9 14 0 9 -8
-5 -8 1 2 19 8 15 12 31 9 36 -3 4 -1 8 5 8 5 0 8 9 6 21 -3 16 0 19 13 14 14
-5 15 -4 5 6 -14 14 -18 43 -5 36 4 -3 7 16 6 41 0 26 4 53 10 61 9 12 8 13
-2 7 -11 -7 -13 3 -10 48 1 31 -1 56 -6 56 -4 0 -6 15 -4 34 2 20 0 32 -6 29
-5 -3 -7 5 -4 21 3 14 1 26 -4 26 -5 0 -8 10 -7 23 2 12 -3 33 -11 47 -8 14
-13 28 -12 33 1 4 -3 7 -8 7 -6 0 -10 5 -10 10 0 6 -12 29 -27 53 -15 23 -26
46 -25 50 1 5 -2 6 -7 3 -5 -4 -18 4 -28 17 -82 101 -293 202 -455 216 -5 1
-8 8 -8 17 0 8 4 13 9 10 5 -3 8 2 7 12 0 10 5 16 13 14 12 -3 12 0 1 12 -9
12 -9 16 -1 16 7 0 9 5 5 12 -5 8 -2 9 11 4 16 -6 16 -4 4 11 -12 15 -12 16 3
10 10 -3 20 -2 23 4 4 5 2 8 -3 7 -12 -3 -14 10 -6 35 3 9 13 17 22 17 14 0
14 2 3 9 -7 5 -10 14 -7 20 4 6 12 8 18 5 7 -4 8 -2 4 5 -4 6 0 23 9 38 12 17
13 23 4 18 -11 -6 -12 -5 -1 6 6 7 12 21 12 31 0 10 3 18 8 18 8 0 42 73 42
90 0 6 5 10 10 10 6 0 9 3 8 8 -1 4 8 27 19 52 11 25 23 55 27 68 4 12 12 19
18 16 6 -4 8 -2 5 3 -9 14 88 225 98 215 5 -4 5 -2 1 5 -8 14 13 63 27 63 6 0
8 3 4 6 -3 4 0 19 9 35 8 16 12 29 9 29 -2 0 -15 -19 -27 -42z m-1509 -336
c19 -14 44 -48 58 -79 32 -68 28 -123 -13 -188 -96 -153 -336 -101 -360 78
-20 144 94 252 236 224 25 -5 60 -21 79 -35z m115 -107 c3 -8 0 -15 -6 -15 -7
0 -7 -4 -1 -12 12 -15 13 -48 2 -48 -4 0 -9 7 -13 15 -3 8 -1 15 5 15 6 0 7 6
2 13 -11 18 -14 47 -4 47 5 0 11 -7 15 -15z m206 -349 c0 15 2 16 9 4 6 -8 8
-17 6 -20 -2 -3 5 -6 16 -6 18 0 18 2 4 12 -14 10 -13 12 4 17 11 2 29 -2 41
-10 11 -8 26 -12 33 -10 6 3 3 6 -8 7 -17 2 -16 3 5 9 26 8 64 -4 56 -18 -3
-4 1 -8 9 -8 11 0 12 4 4 13 -7 8 -6 13 3 17 21 7 37 -4 31 -21 -5 -16 -5 -16
8 0 9 10 25 15 44 13 17 -2 36 -3 44 -4 7 -1 11 -7 8 -15 -4 -10 -1 -13 8 -9
8 3 12 9 9 14 -3 5 2 6 10 3 9 -3 14 -10 11 -14 -3 -5 4 -6 15 -3 12 3 20 0
20 -7 0 -7 7 -10 16 -6 10 4 13 2 8 -6 -5 -7 -2 -9 8 -5 17 6 48 -21 48 -41 0
-6 5 -14 12 -18 7 -5 8 -2 3 7 -5 10 -5 11 3 4 19 -18 41 -84 31 -91 -6 -3 -6
-11 -1 -17 13 -17 5 -102 -12 -134 -28 -54 -80 -93 -157 -118 -65 -20 -95 -23
-251 -24 -139 -1 -178 1 -179 11 -5 48 -3 84 6 91 6 6 6 10 -2 14 -9 3 -10 10
-3 24 8 14 7 19 -1 19 -8 0 -8 4 -1 13 7 8 7 18 2 27 -6 9 -3 18 8 27 13 10
13 12 2 8 -12 -4 -15 3 -15 27 0 18 5 37 10 41 6 6 6 10 -2 14 -9 3 -10 10 -3
24 8 14 7 19 -2 19 -9 0 -9 3 0 12 7 7 8 17 1 30 -7 13 -6 18 2 18 7 0 9 3 6
7 -4 3 -2 12 5 20 9 11 7 12 -8 6 -17 -6 -17 -5 -5 10 11 13 11 17 1 17 -8 0
-11 3 -8 6 4 3 16 0 28 -6 13 -7 20 -7 16 -2 -10 17 18 21 32 4 11 -14 12 -14
12 4z m669 -570 c9 -6 12 -5 8 1 -4 5 7 10 23 10 17 0 30 -4 30 -9 0 -5 -4 -7
-8 -4 -5 3 -9 -2 -9 -11 0 -12 5 -11 19 7 16 19 22 19 20 -1 -1 -3 5 -6 13 -6
8 0 12 4 9 8 -2 4 5 7 16 6 11 -1 20 -5 20 -10 0 -4 5 -5 10 -2 6 3 10 1 10
-5 0 -6 5 -8 10 -5 6 3 10 1 10 -5 0 -6 5 -8 10 -5 6 3 10 1 10 -4 0 -6 3 -10
8 -10 20 3 32 -2 32 -16 0 -8 3 -14 8 -12 4 1 9 -2 11 -8 2 -5 12 -16 23 -23
10 -7 16 -18 13 -23 -4 -5 -2 -9 2 -9 12 0 16 -31 16 -111 0 -51 -5 -73 -24
-101 -26 -40 -98 -92 -144 -104 -16 -4 -37 -9 -45 -12 -27 -8 -350 -14 -378
-7 l-27 7 25 21 c14 11 18 18 9 15 -9 -4 -16 -1 -16 8 0 7 4 11 8 8 4 -2 10 0
14 6 3 5 0 10 -7 10 -10 0 -9 3 2 9 8 6 18 7 24 4 5 -3 6 -1 2 6 -4 6 -12 9
-17 6 -11 -8 12 47 24 56 5 3 8 8 7 10 -4 10 13 38 20 34 5 -3 6 3 3 13 -2 11
3 27 12 36 10 9 15 20 12 23 -9 8 21 63 34 63 6 0 7 5 4 10 -4 6 1 22 9 35 9
14 13 25 9 25 -5 0 -2 4 5 8 7 5 15 19 17 32 2 13 9 27 15 30 15 9 72 6 89 -4z
m-600 -400 c10 -6 12 -5 7 2 -10 16 7 15 23 0 8 -7 11 -8 8 -3 -3 6 9 10 29
11 19 0 34 -3 34 -7 0 -4 7 -10 16 -13 13 -5 14 -4 6 7 -10 11 -2 13 43 12 30
0 58 -5 62 -10 4 -4 2 -5 -4 -1 -7 4 -13 3 -13 -3 0 -5 5 -11 11 -13 8 -3 6
-10 -5 -21 -9 -9 -17 -20 -16 -24 0 -18 -54 -149 -67 -159 -7 -6 -10 -13 -8
-16 5 -5 -16 -60 -55 -143 -10 -22 -22 -50 -25 -62 -4 -13 -14 -24 -23 -24
-64 -5 -169 -3 -166 3 2 3 -2 9 -8 11 -10 4 -9 8 2 16 9 7 11 14 5 19 -5 4
-10 14 -10 22 0 8 5 19 10 23 6 6 6 10 -2 14 -9 3 -10 10 -3 24 8 14 7 19 -1
19 -8 0 -8 4 -1 13 7 8 7 18 2 27 -6 9 -5 18 3 23 9 7 9 10 0 14 -9 3 -10 10
-3 24 8 14 7 19 -1 19 -8 0 -8 4 -1 13 7 8 7 18 2 27 -6 9 -5 18 3 23 9 7 9
10 0 14 -9 3 -10 10 -3 24 8 14 7 19 -1 19 -8 0 -8 4 1 15 9 11 9 15 1 15 -9
0 -9 5 -1 20 6 11 9 24 6 29 -7 11 125 8 143 -3z"/>
<path d="M2036 3567 c3 -10 9 -15 12 -12 3 3 0 11 -7 18 -10 9 -11 8 -5 -6z"/>
<path d="M2113 3565 c0 -8 4 -12 9 -9 5 3 6 10 3 15 -9 13 -12 11 -12 -6z"/>
<path d="M2413 3505 c0 -8 4 -12 9 -9 5 3 6 10 3 15 -9 13 -12 11 -12 -6z"/>
<path d="M2576 2998 c3 -5 10 -6 15 -3 13 9 11 12 -6 12 -8 0 -12 -4 -9 -9z"/>
<path d="M2796 2967 c3 -10 9 -15 12 -12 3 3 0 11 -7 18 -10 9 -11 8 -5 -6z"/>
<path d="M2515 2900 c-3 -5 -1 -10 4 -10 6 0 11 5 11 10 0 6 -2 10 -4 10 -3 0
-8 -4 -11 -10z"/>
<path d="M2493 2845 c0 -8 4 -12 9 -9 5 3 6 10 3 15 -9 13 -12 11 -12 -6z"/>
<path d="M1950 2600 c0 -5 5 -10 10 -10 6 0 10 5 10 10 0 6 -4 10 -10 10 -5 0
-10 -4 -10 -10z"/>
<path d="M2099 2593 c-13 -16 -12 -17 4 -4 16 13 21 21 13 21 -2 0 -10 -8 -17
-17z"/>
<path d="M2195 2600 c-3 -5 -1 -10 4 -10 6 0 11 5 11 10 0 6 -2 10 -4 10 -3 0
-8 -4 -11 -10z"/>
<path d="M3155 2300 c3 -5 8 -10 11 -10 2 0 4 5 4 10 0 6 -5 10 -11 10 -5 0
-7 -4 -4 -10z"/>
<path d="M3055 2240 c-3 -5 -1 -10 4 -10 6 0 11 5 11 10 0 6 -2 10 -4 10 -3 0
-8 -4 -11 -10z"/>
<path d="M2713 2126 c-3 -6 -3 -8 2 -4 4 4 13 3 20 -2 8 -7 12 -5 12 3 0 16
-25 18 -34 3z"/>
<path d="M2386 2102 c-3 -5 1 -9 9 -9 8 0 12 4 9 9 -3 4 -7 8 -9 8 -2 0 -6 -4
-9 -8z"/>
<path d="M1735 1181 c-3 -5 -2 -12 3 -15 5 -3 9 1 9 9 0 17 -3 19 -12 6z"/>
<path d="M1980 1086 c7 -7 13 -7 20 0 6 6 3 10 -10 10 -13 0 -16 -4 -10 -10z"/>
<path d="M2025 1089 c-4 -6 -5 -12 -2 -15 2 -3 7 2 10 11 7 17 1 20 -8 4z"/>
<path d="M2106 1088 c3 -5 10 -6 15 -3 13 9 11 12 -6 12 -8 0 -12 -4 -9 -9z"/>
<path d="M2145 1091 c-3 -5 -2 -12 3 -15 5 -3 9 1 9 9 0 17 -3 19 -12 6z"/>
<path d="M2210 1091 c0 -6 4 -13 10 -16 6 -3 7 1 4 9 -7 18 -14 21 -14 7z"/>
<path d="M1560 800 c-9 -6 -10 -10 -3 -10 6 0 15 5 18 10 8 12 4 12 -15 0z"/>
<path d="M1226 95 c-9 -26 -7 -32 5 -12 6 10 9 21 6 23 -2 3 -7 -2 -11 -11z"/>
</g>
</svg>
